<svg width="512" height="512" viewBox="0 0 512 512" fill="none" xmlns="http://www.w3.org/2000/svg">
<g clip-path="url(#clip0)">
<path d="M46.0134 512C70.5201 512 99.5528 493.807 134.811 456.366C155.348 434.525 184.664 422.001 213.461 422.001H298.538C327.337 422.001 356.652 434.525 377.189 456.366C412.447 493.806 441.48 512 465.986 512C482.129 512 495.268 502.742 502.959 485.94C508.73 473.357 511.997 456.293 511.997 435.257C511.997 348.29 455.73 181.003 369.598 181.003C343.582 181.003 331.439 189.294 320.716 196.604C312.321 202.332 304.141 207.691 288.522 210.531C295.298 199.882 301 187.086 301 173.503C301 141.379 269.478 112.859 265.903 109.739C259.443 104.041 241.001 83.2361 241.001 67.5043C241.001 51.7724 259.443 31.9677 265.903 26.2697C272.099 20.8058 272.715 11.3289 267.251 5.118C261.802 -1.13693 252.339 -1.72292 246.128 3.71201C242.524 6.86098 211.001 35.3816 211.001 67.5053C211.001 99.6289 242.524 129.15 246.099 132.269C252.559 137.967 271.001 157.772 271.001 173.504C271.001 186.775 257.933 202.85 249.949 211.004H226.733C208.1 208.074 199.927 202.508 191.285 196.605C180.562 189.295 168.419 181.004 142.403 181.004C56.2713 181.004 0.00292969 348.291 0.00292969 435.258C0.00292969 504.515 32.2876 512 46.0134 512ZM375.999 361.002C367.715 361.002 360.999 354.286 360.999 346.002C360.999 337.718 367.715 331.002 375.999 331.002C384.282 331.002 390.998 337.718 390.998 346.002C390.998 354.286 384.282 361.002 375.999 361.002ZM405.998 301.003C414.282 301.003 420.998 307.718 420.998 316.002C420.998 324.286 414.282 331.002 405.998 331.002C397.714 331.002 390.998 324.286 390.998 316.002C390.998 307.718 397.715 301.003 405.998 301.003ZM375.999 271.003C384.282 271.003 390.998 277.719 390.998 286.003C390.998 294.287 384.282 301.003 375.999 301.003C367.715 301.003 360.999 294.287 360.999 286.003C360.999 277.719 367.716 271.003 375.999 271.003ZM345.999 301.003C354.283 301.003 360.999 307.718 360.999 316.002C360.999 324.286 354.283 331.002 345.999 331.002C337.715 331.002 330.999 324.286 330.999 316.002C330.999 307.718 337.716 301.003 345.999 301.003ZM226 301.003H286C294.29 301.003 300.999 307.711 300.999 316.002C300.999 324.293 294.29 331.002 286 331.002H226C217.709 331.002 211 324.293 211 316.002C211 307.711 217.709 301.003 226 301.003ZM106.002 301.003H121.002V286.003C121.002 277.712 127.71 271.003 136.001 271.003C144.292 271.003 151.001 277.712 151.001 286.003V301.003H166.001C174.292 301.003 181.001 307.711 181.001 316.002C181.001 324.293 174.292 331.002 166.001 331.002H151.001V346.002C151.001 354.293 144.292 361.002 136.001 361.002C127.71 361.002 121.002 354.293 121.002 346.002V331.002H106.002C97.7108 331.002 91.0019 324.293 91.0019 316.002C91.0019 307.711 97.7108 301.003 106.002 301.003Z" fill="#16EE1E"/>
</g>
<defs>
<clipPath id="clip0">
<rect width="512" height="512" fill="white"/>
</clipPath>
</defs>
</svg>
